<?xml version="1.0" encoding="UTF-8"?>
<svg version="1.1" xmlns="http://www.w3.org/2000/svg" width="1200" height="669">
<path d="M0 0 C0.60585938 0.495 1.21171875 0.99 1.8359375 1.5 C1.8359375 2.49 1.8359375 3.48 1.8359375 4.5 C1.1553125 4.62375 0.4746875 4.7475 -0.2265625 4.875 C-15.23764705 8.06884778 -28.27482259 16.59621405 -41.4140625 24.1953125 C-48.83140675 28.47794578 -56.32231124 32.62932277 -63.81420898 36.77978516 C-68.73255746 39.51822659 -73.55046666 42.27127427 -78.1640625 45.5 C-74.33059633 48.75263796 -70.74596263 51.44604477 -66.1640625 53.5 C-59.81164093 52.3733441 -54.73329984 49.17367307 -49.2265625 45.9375 C-39.45124602 40.30251684 -29.56938759 34.90972313 -19.6015625 29.625 C-18.93609406 29.27114227 -18.27062561 28.91728455 -17.58499146 28.55270386 C-13.74705604 26.51275112 -9.90128821 24.48883414 -6.04544067 22.48294067 C-4.77506568 21.81922337 -3.50710428 21.15086875 -2.24142456 20.47824097 C-0.37464966 19.48657536 1.49916529 18.50955154 3.375 17.53515625 C4.45604004 16.96676025 5.53708008 16.39836426 6.65087891 15.81274414 C12.48208961 13.40936993 18.83141878 13.04295447 24.80664062 15.21704102 C31.30881801 18.00295821 37.50320118 21.43395324 43.7109375 24.8125 C44.72285156 25.35583984 45.73476563 25.89917969 46.77734375 26.45898438 C65.43192452 36.57449648 65.43192452 36.57449648 69.0234375 41.5 C70.30763988 46.24167034 70.33933098 49.85558131 68.8984375 54.5625 C61.57230497 64.99668876 44.32559177 71.13140325 33.35704041 77.1728363 C30.23832747 78.89072901 27.12053022 80.61024637 24.00463867 82.33325195 C23.38209702 82.67746689 22.75955536 83.02168182 22.1181488 83.37632751 C20.8631714 84.07027294 19.60825797 84.76433406 18.35340881 85.45851135 C14.26674477 87.71685797 10.16716269 89.95025228 6.0625 92.17578125 C4.00754092 93.30419307 1.95283857 94.43307258 -0.1015625 95.5625 C-1.50257202 96.31128418 -1.50257202 96.31128418 -2.93188477 97.07519531 C-11.69891995 101.93358382 -17.09602217 107.84625629 -20.1640625 117.5 C-20.71703436 121.58021526 -20.72862761 125.6077779 -20.70996094 129.72094727 C-20.72546745 131.50782204 -20.72546745 131.50782204 -20.74128723 133.33079529 C-20.76558486 136.56998413 -20.77255624 139.80863324 -20.77156734 143.04789472 C-20.77471313 146.44322453 -20.80036563 149.83838584 -20.82354736 153.23362732 C-20.86398428 159.65069874 -20.88441893 166.06766885 -20.89752126 172.48484796 C-20.91343325 179.7957698 -20.95186632 187.10652026 -20.99211454 194.41734231 C-21.07434476 209.44483798 -21.12854202 224.47231581 -21.1640625 239.5 C-29.74596164 238.24414848 -37.64581965 233.49552093 -42.90649414 226.46444702 C-47.20075165 219.75638912 -47.43160272 213.22369817 -46.7265625 205.5234375 C-44.51283232 185.95738949 -44.51283232 185.95738949 -50.4453125 168.20898438 C-56.58315715 163.04873998 -63.83936434 160.47226859 -71.35058594 157.921875 C-77.7478072 155.66580871 -83.46244032 152.04575257 -89.2890625 148.625 C-91.37304189 147.45743559 -93.45880299 146.29304181 -95.546875 145.1328125 C-100.03874817 142.62531433 -100.03874817 142.62531433 -101.1640625 141.5 C-101.4940625 158.66 -101.8240625 175.82 -102.1640625 193.5 C-110.58562268 191.81568796 -117.53379042 186.92652553 -123.04296875 180.37109375 C-126.61849833 174.40357225 -126.43915654 168.44946814 -126.39111328 161.72119141 C-126.39140533 160.64742249 -126.39169739 159.57365356 -126.39199829 158.46734619 C-126.39060826 154.92866858 -126.37506217 151.3902032 -126.359375 147.8515625 C-126.35564372 145.3939119 -126.35279729 142.9362598 -126.35079956 140.47860718 C-126.34317222 134.01775996 -126.32353133 127.55700302 -126.3013916 121.09619141 C-126.28091388 114.50033794 -126.27179372 107.90446986 -126.26171875 101.30859375 C-126.24028469 88.37235738 -126.20654527 75.4361835 -126.1640625 62.5 C-117.71755626 63.99778934 -110.61837229 69.19330623 -105.28515625 75.82421875 C-102.40215179 80.13365747 -102.03711613 82.4490347 -102.76953125 87.671875 C-103.49699955 95.51479509 -104.03567685 103.02814536 -101.1640625 110.5 C-94.55488837 117.6418615 -84.89206991 121.09612348 -76.07470703 124.78564453 C-70.09618278 127.33235635 -64.57391655 130.64908841 -58.9765625 133.9375 C-57.10995224 135.0020001 -55.24163645 136.063519 -53.37109375 137.12109375 C-52.6025708 137.5586499 -51.83404785 137.99620605 -51.04223633 138.44702148 C-49.76638531 139.16231402 -48.47232523 139.84586863 -47.1640625 140.5 C-47.17453613 139.66863525 -47.18500977 138.83727051 -47.19580078 137.98071289 C-47.2301682 134.85523529 -47.25509909 131.72985498 -47.27392578 128.60424805 C-47.28876495 126.60263623 -47.31419611 124.60111188 -47.33984375 122.59960938 C-47.40795041 109.08043774 -45.47083495 99.25391745 -36.2265625 88.9375 C-24.65036033 78.22703945 -8.4682624 71.76290051 5.3731842 64.41514587 C9.56714186 62.18504859 13.74246964 59.92337961 17.91015625 57.64453125 C19.01496338 57.04092773 20.11977051 56.43732422 21.25805664 55.81542969 C23.35662624 54.66688714 25.45353512 53.51530378 27.54858398 52.36035156 C28.48130127 51.85084961 29.41401855 51.34134766 30.375 50.81640625 C31.19178223 50.36724854 32.00856445 49.91809082 32.85009766 49.45532227 C34.8359375 48.5 34.8359375 48.5 36.8359375 48.5 C33.98559538 45.43604911 31.15771918 43.25909196 27.5234375 41.1875 C26.16798828 40.38892578 26.16798828 40.38892578 24.78515625 39.57421875 C20.11864857 37.87449741 16.28050685 38.85877146 11.80761719 40.84423828 C10.80118164 41.41384277 9.79474609 41.98344727 8.7578125 42.5703125 C7.03606812 43.53324219 7.03606812 43.53324219 5.27954102 44.515625 C4.0482412 45.21857724 2.81704248 45.92170659 1.5859375 46.625 C0.30261394 47.34744237 -0.981332 48.06878016 -2.26586914 48.7890625 C-4.91795127 50.27778165 -7.56679066 51.77204494 -10.21337891 53.27050781 C-13.9915292 55.40683561 -17.78380821 57.51679606 -21.58203125 59.6171875 C-22.17275421 59.94400009 -22.76347717 60.27081268 -23.37210083 60.60752869 C-25.11522182 61.57174527 -26.85839183 62.53587324 -28.6015625 63.5 C-37.19635625 68.25496945 -37.19635625 68.25496945 -45.71484375 73.14453125 C-46.3581665 73.52029297 -47.00148926 73.89605469 -47.66430664 74.28320312 C-49.23666664 75.20814658 -50.80237054 76.14438299 -52.3671875 77.08203125 C-59.68840334 80.79376498 -67.34630639 81.89546461 -75.203125 79.40625 C-81.28421655 77.28920813 -86.65910688 73.9815054 -92.1640625 70.6875 C-93.19273437 70.08357422 -94.22140625 69.47964844 -95.28125 68.85742188 C-114.39916778 57.55936487 -114.39916778 57.55936487 -116.1640625 52.5 C-116.84289635 47.81778701 -116.81037815 44.69853762 -114.52734375 40.46484375 C-111.88811553 37.15381198 -109.59091592 35.58187134 -105.9140625 33.5 C-105.27202881 33.13028076 -104.62999512 32.76056152 -103.96850586 32.37963867 C-102.5163793 31.54386178 -101.0610057 30.7137099 -99.60302734 29.88818359 C-95.9663945 27.8183243 -92.36019066 25.69715657 -88.74975586 23.58203125 C-85.67990664 21.78519146 -82.60611414 19.99527398 -79.53125 18.20703125 C-75.24088672 15.71104854 -70.95467438 13.20815768 -66.671875 10.69921875 C-65.61282959 10.07942139 -64.55378418 9.45962402 -63.46264648 8.82104492 C-61.45625106 7.64661947 -59.45050488 6.4710838 -57.44555664 5.29418945 C-37.18121813 -6.55567083 -21.78616869 -12.87059812 0 0 Z " fill="#FA621F" transform="translate(337.1640625,219.5)"/>
<path d="M0 0 C3.82158012 2.43191462 5.32820787 4.48462362 6.75 8.75 C6.85714894 11.7409036 6.90727388 14.70884347 6.91113281 17.70019531 C6.91858017 19.07387016 6.91858017 19.07387016 6.92617798 20.47529602 C6.94080073 23.50957996 6.94760233 26.54381159 6.953125 29.578125 C6.95887701 31.68699139 6.96463474 33.79585776 6.97039795 35.90472412 C6.9809087 40.32987715 6.98675067 44.75501202 6.99023438 49.18017578 C6.99571474 54.84393304 7.01973281 60.50744936 7.04820633 66.17113113 C7.06685368 70.52922257 7.07203947 74.88725626 7.07357025 79.24538422 C7.07659331 81.33292709 7.08461009 83.42046904 7.09775543 85.50797272 C7.11485715 88.43290888 7.11292534 91.35726034 7.10644531 94.28222656 C7.1156601 95.14066666 7.12487488 95.99910675 7.1343689 96.88356018 C7.08244775 104.38513299 5.13312141 110.25957385 -0.25 115.75 C-3.02464094 117.7261209 -5.91993956 119.43426911 -8.875 121.125 C-9.65101563 121.58777344 -10.42703125 122.05054688 -11.2265625 122.52734375 C-15.50779676 125.0172977 -15.50779676 125.0172977 -17.25 125.75 C-17.91 125.42 -18.57 125.09 -19.25 124.75 C-19.25 113.2 -19.25 101.65 -19.25 89.75 C-39.45151922 101.20242182 -39.45151922 101.20242182 -59.44897461 113.00537109 C-64.03632318 115.75 -64.03632318 115.75 -66.25 115.75 C-66.2185791 117.1412207 -66.2185791 117.1412207 -66.18652344 118.56054688 C-66.11794501 122.03460829 -66.06800673 125.50794011 -66.03027344 128.98242188 C-66.01028081 130.4799339 -65.98307701 131.97736908 -65.94824219 133.47460938 C-65.59166495 149.20595814 -65.59166495 149.20595814 -70.25 155.75 C-72.51171875 157.88671875 -72.51171875 157.88671875 -74.9375 159.4375 C-75.80890625 159.99824219 -76.6803125 160.55898438 -77.578125 161.13671875 C-78.45984375 161.66910156 -79.3415625 162.20148438 -80.25 162.75 C-81.09046875 163.27207031 -81.9309375 163.79414063 -82.796875 164.33203125 C-87.20699903 166.94784011 -87.20699903 166.94784011 -89.25 167.75 C-90.24 167.42 -91.23 167.09 -92.25 166.75 C-92.34367372 152.31978548 -92.41382515 137.88961851 -92.45724869 123.45916176 C-92.47782498 116.75798208 -92.50635461 110.0570198 -92.55175781 103.35595703 C-92.59532586 96.88500337 -92.61916058 90.41424625 -92.62950897 83.9431572 C-92.63688059 81.47848798 -92.65127556 79.01382912 -92.67292023 76.54924393 C-92.70209886 73.08809697 -92.70594982 69.62775473 -92.70410156 66.16650391 C-92.71848267 65.15517395 -92.73286377 64.14384399 -92.74768066 63.10186768 C-92.70487036 55.65781429 -91.50870199 48.45959138 -86.44818497 42.69887733 C-81.53446313 38.05104324 -75.66049096 34.88677057 -69.75 31.6875 C-67.70485795 30.55626113 -65.66061586 29.42339399 -63.6171875 28.2890625 C-62.56885742 27.70930664 -61.52052734 27.12955078 -60.44042969 26.53222656 C-55.21163376 23.61133505 -50.04308249 20.58914155 -44.875 17.5625 C-43.87742676 16.98008545 -42.87985352 16.3976709 -41.85205078 15.79760742 C-37.27919133 13.12438843 -32.71591817 10.43677949 -28.171875 7.71484375 C-27.39763184 7.25295654 -26.62338867 6.79106934 -25.82568359 6.31518555 C-24.41405316 5.47155862 -23.00524941 4.62317311 -21.60009766 3.76879883 C-14.56363325 -0.43325623 -8.00998002 -3.08076155 0 0 Z M-30.1953125 39.3359375 C-31.66339355 40.15916504 -31.66339355 40.15916504 -33.16113281 40.99902344 C-34.18045898 41.5768457 -35.19978516 42.15466797 -36.25 42.75 C-38.22625464 43.846909 -40.20281578 44.94326599 -42.1796875 46.0390625 C-44.16194666 47.15017092 -46.14371635 48.26215302 -48.125 49.375 C-49.13046875 49.93445313 -50.1359375 50.49390625 -51.171875 51.0703125 C-52.14382813 51.616875 -53.11578125 52.1634375 -54.1171875 52.7265625 C-54.98456543 53.21205566 -55.85194336 53.69754883 -56.74560547 54.19775391 C-62.75087649 57.87721228 -62.75087649 57.87721228 -66.25 63.75 C-66.52344844 66.26269724 -66.52344844 66.26269724 -66.4453125 68.953125 C-66.43886719 69.9328125 -66.43242187 70.9125 -66.42578125 71.921875 C-66.40902344 72.93765625 -66.39226562 73.9534375 -66.375 75 C-66.36597656 76.03125 -66.35695313 77.0625 -66.34765625 78.125 C-66.32412011 80.66690287 -66.29124023 83.2083328 -66.25 85.75 C-62.79224944 84.43691557 -59.61262539 82.92486529 -56.3984375 81.09765625 C-55.01023804 80.31322144 -55.01023804 80.31322144 -53.59399414 79.51293945 C-51.5816436 78.36040088 -49.57311773 77.20116326 -47.56811523 76.03588867 C-42.62328731 73.1725217 -37.71593949 70.44343291 -32.51171875 68.078125 C-23.96645267 64.48126161 -23.96645267 64.48126161 -18.40283203 57.60009766 C-17.21693762 51.08912008 -17.88748734 44.7109912 -20.6484375 38.7109375 C-21.17695313 38.06382812 -21.70546875 37.41671875 -22.25 36.75 C-25.77842718 36.75 -27.14700596 37.61200979 -30.1953125 39.3359375 Z " fill="#2076E0" transform="translate(418.25,288.25)"/>
<path d="M0 0 C6.93759035 -0.07649331 13.87507065 -0.12878497 20.81298828 -0.16479492 C23.16980046 -0.17981778 25.52658498 -0.20024196 27.88330078 -0.22631836 C31.28424942 -0.26298821 34.68482621 -0.27979196 38.0859375 -0.29296875 C39.12801361 -0.30845261 40.17008972 -0.32393646 41.2437439 -0.33988953 C51.55885426 -0.3422262 60.43024746 1.63954938 68 9 C72.31277365 13.7513608 72.61022551 18.80000972 72.390625 25.05078125 C71.84282617 29.18666243 70.69022696 32.76176385 68 36 C65.859375 37.2109375 65.859375 37.2109375 64 38 C64 38.99 64 39.98 64 41 C64.721875 41.20625 65.44375 41.4125 66.1875 41.625 C70.50921126 43.73783662 73.0530315 47.02687399 75.12109375 51.3359375 C77.10995919 57.36440962 77.05045176 64.51798911 74.5 70.375 C70.47711134 77.1407673 64.2120484 80.31696193 56.86407471 82.40664673 C51.6645436 83.48383888 46.5003889 83.36547512 41.2109375 83.29296875 C40.02650055 83.28872391 38.8420636 83.28447906 37.62173462 83.28010559 C33.87258287 83.26343533 30.12398679 83.22580413 26.375 83.1875 C23.81901823 83.17243814 21.26302796 83.15875237 18.70703125 83.14648438 C12.4711675 83.11357002 6.23562347 83.06348779 0 83 C-1.50947898 79.98104205 -1.13859572 76.86358276 -1.12939453 73.55273438 C-1.13114685 72.78512283 -1.13289917 72.01751129 -1.13470459 71.22663879 C-1.13911572 68.68231972 -1.1361877 66.13806982 -1.1328125 63.59375 C-1.13348575 61.83020006 -1.13445595 60.06665021 -1.13571167 58.30310059 C-1.13718764 54.60423907 -1.13503731 50.90540168 -1.13037109 47.20654297 C-1.12467387 42.45820953 -1.12795341 37.70993262 -1.13394356 32.96160126 C-1.13755188 29.31914848 -1.13640933 25.67670916 -1.13381577 22.03425598 C-1.13314725 20.28310642 -1.13397231 18.53195564 -1.13629532 16.7808075 C-1.13882626 14.33626045 -1.13497498 11.89180577 -1.12939453 9.44726562 C-1.13141876 8.71888992 -1.13344299 7.99051422 -1.13552856 7.24006653 C-1.11426443 2.22852887 -1.11426443 2.22852887 0 0 Z M20 16 C20 21.61 20 27.22 20 33 C24.06290008 33.08095816 28.12418567 33.14048645 32.1875 33.1875 C33.33798828 33.21263672 34.48847656 33.23777344 35.67382812 33.26367188 C36.78564453 33.27333984 37.89746094 33.28300781 39.04296875 33.29296875 C40.57473755 33.31653442 40.57473755 33.31653442 42.13745117 33.34057617 C45.46077459 32.94517863 47.31742158 31.96790197 50 30 C51.54586876 26.90826248 51.29359521 24.40570448 51 21 C48.78136971 18.09282927 47.48055071 17.16018357 44 16 C42.15389468 15.91760831 40.30494836 15.89256641 38.45703125 15.90234375 C36.84731445 15.90717773 36.84731445 15.90717773 35.20507812 15.91210938 C34.08552734 15.92048828 32.96597656 15.92886719 31.8125 15.9375 C30.11577148 15.94426758 30.11577148 15.94426758 28.38476562 15.95117188 C25.58982124 15.96296489 22.79490401 15.98090043 20 16 Z M20 49 C20 54.94 20 60.88 20 67 C24.54202541 67.08100045 29.08260304 67.14050969 33.625 67.1875 C34.91019531 67.21263672 36.19539062 67.23777344 37.51953125 67.26367188 C38.76347656 67.27333984 40.00742187 67.28300781 41.2890625 67.29296875 C42.43068848 67.3086792 43.57231445 67.32438965 44.74853516 67.34057617 C48.44542122 66.95334415 50.83707077 65.92270804 54 64 C55.59875351 60.80249299 55.50166324 57.47041009 55 54 C52.67340744 50.75938893 50.838231 49.69585614 47 49 C44.9023604 48.91879767 42.80231238 48.89244192 40.703125 48.90234375 C38.89521484 48.90717773 38.89521484 48.90717773 37.05078125 48.91210938 C35.16939453 48.92467773 35.16939453 48.92467773 33.25 48.9375 C31.98027344 48.94201172 30.71054687 48.94652344 29.40234375 48.95117188 C26.26820905 48.96295434 23.13409858 48.98088964 20 49 Z " fill="#707070" transform="translate(726,294)"/>
<path d="M0 0 C8.04375 -0.061875 16.0875 -0.12375 24.375 -0.1875 C26.89431152 -0.21481201 29.41362305 -0.24212402 32.00927734 -0.27026367 C34.03482587 -0.27903604 36.06037974 -0.2866782 38.0859375 -0.29296875 C39.11436768 -0.30831665 40.14279785 -0.32366455 41.20239258 -0.33947754 C51.53311825 -0.34317148 60.41698469 1.62665332 68 9 C72.36846545 13.81271617 72.54904366 18.87155445 72.328125 25.19140625 C71.9199497 28.68519243 70.96586141 31.08761272 69 34 C68.484375 34.78375 67.96875 35.5675 67.4375 36.375 C66.963125 36.91125 66.48875 37.4475 66 38 C65.34 38 64.68 38 64 38 C64 38.99 64 39.98 64 41 C64.721875 41.20625 65.44375 41.4125 66.1875 41.625 C70.50921126 43.73783662 73.0530315 47.02687399 75.12109375 51.3359375 C77.10995919 57.36440962 77.05045176 64.51798911 74.5 70.375 C70.47711134 77.1407673 64.2120484 80.31696193 56.86407471 82.40664673 C51.66471579 83.48380321 46.50034755 83.36579036 41.2109375 83.29296875 C39.63372925 83.28843689 39.63372925 83.28843689 38.0246582 83.28381348 C34.14133725 83.26825777 30.25815752 83.22637515 26.375 83.1875 C13.319375 83.0946875 13.319375 83.0946875 0 83 C0 55.61 0 28.22 0 0 Z M20 16 C20 21.61 20 27.22 20 33 C24.06290008 33.08095816 28.12418567 33.14048645 32.1875 33.1875 C33.33798828 33.21263672 34.48847656 33.23777344 35.67382812 33.26367188 C36.78564453 33.27333984 37.89746094 33.28300781 39.04296875 33.29296875 C40.57473755 33.31653442 40.57473755 33.31653442 42.13745117 33.34057617 C45.46077459 32.94517863 47.31742158 31.96790197 50 30 C51.54586876 26.90826248 51.29359521 24.40570448 51 21 C48.78136971 18.09282927 47.48055071 17.16018357 44 16 C42.15389468 15.91760831 40.30494836 15.89256641 38.45703125 15.90234375 C36.84731445 15.90717773 36.84731445 15.90717773 35.20507812 15.91210938 C34.08552734 15.92048828 32.96597656 15.92886719 31.8125 15.9375 C30.11577148 15.94426758 30.11577148 15.94426758 28.38476562 15.95117188 C25.58982124 15.96296489 22.79490401 15.98090043 20 16 Z M20 49 C20 54.94 20 60.88 20 67 C24.54202541 67.08100045 29.08260304 67.14050969 33.625 67.1875 C34.91019531 67.21263672 36.19539062 67.23777344 37.51953125 67.26367188 C38.76347656 67.27333984 40.00742187 67.28300781 41.2890625 67.29296875 C42.43068848 67.3086792 43.57231445 67.32438965 44.74853516 67.34057617 C48.44542122 66.95334415 50.83707077 65.92270804 54 64 C55.59875351 60.80249299 55.50166324 57.47041009 55 54 C52.67340744 50.75938893 50.838231 49.69585614 47 49 C44.9023604 48.91879767 42.80231238 48.89244192 40.703125 48.90234375 C38.89521484 48.90717773 38.89521484 48.90717773 37.05078125 48.91210938 C35.16939453 48.92467773 35.16939453 48.92467773 33.25 48.9375 C31.98027344 48.94201172 30.71054687 48.94652344 29.40234375 48.95117188 C26.26820905 48.96295434 23.13409858 48.98088964 20 49 Z " fill="#181818" transform="translate(498,294)"/>
<path d="M0 0 C2.23480802 2.05093141 3.66769801 3.75154702 5.375 6.3125 C5.359375 8.265625 5.359375 8.265625 4.375 10.3125 C1.828125 12.234375 1.828125 12.234375 -1.375 14.0625 C-2.42171875 14.67609375 -3.4684375 15.2896875 -4.546875 15.921875 C-7.61636214 17.30859762 -9.31938905 17.82415109 -12.625 17.3125 C-13.346875 16.549375 -14.06875 15.78625 -14.8125 15 C-19.20791763 10.79993427 -24.17803565 9.44247603 -30.21484375 9.21484375 C-35.8764965 9.57251365 -41.10771465 10.75284046 -45.625 14.3125 C-50.87387597 20.53339003 -52.95902313 25.87693457 -52.83984375 33.94140625 C-52.33497021 39.51337425 -50.11315617 44.81953266 -46.328125 48.9921875 C-40.96504872 53.14980168 -33.61560741 55.04998222 -26.890625 54.69921875 C-21.13480471 53.71675977 -16.16550763 51.89058099 -12.0625 47.6875 C-10.63894864 45.40751855 -10.63894864 45.40751855 -9.625 43.3125 C-10.22562256 43.31773682 -10.82624512 43.32297363 -11.44506836 43.32836914 C-14.15086838 43.34908014 -16.85665177 43.36214125 -19.5625 43.375 C-20.50802734 43.38337891 -21.45355469 43.39175781 -22.42773438 43.40039062 C-23.77641602 43.40522461 -23.77641602 43.40522461 -25.15234375 43.41015625 C-26.40132446 43.41801147 -26.40132446 43.41801147 -27.67553711 43.42602539 C-29.625 43.3125 -29.625 43.3125 -30.625 42.3125 C-30.72475032 39.80113896 -30.76382183 37.32346585 -30.75 34.8125 C-30.75580078 33.75869141 -30.75580078 33.75869141 -30.76171875 32.68359375 C-30.75161378 27.43911378 -30.75161378 27.43911378 -29.625 26.3125 C-26.6796443 26.21139647 -23.7582244 26.17280721 -20.8125 26.1796875 C-19.92844482 26.17873077 -19.04438965 26.17777405 -18.13354492 26.17678833 C-16.26057871 26.17610649 -14.38761014 26.17796107 -12.51464844 26.18212891 C-9.63731612 26.18747711 -6.76013992 26.18218407 -3.8828125 26.17578125 C-2.06770799 26.17644203 -0.25260357 26.17772319 1.5625 26.1796875 C2.42915283 26.17766327 3.29580566 26.17563904 4.1887207 26.17355347 C10.26004991 26.19754991 10.26004991 26.19754991 11.375 27.3125 C12.46340336 40.68431267 11.11164622 51.99904317 2.3125 62.75 C-6.18744921 71.43350293 -17.1701822 75.18564059 -29.125 75.5625 C-43.04615857 75.17035469 -54.94208787 69.65762333 -64.66015625 59.734375 C-73.53220634 48.79864725 -74.6841828 36.83039448 -73.625 23.3125 C-71.43382991 11.36666306 -64.27589421 2.3984338 -54.625 -4.6875 C-36.93741053 -15.34668763 -15.6593648 -13.24591431 0 0 Z " fill="#181818" transform="translate(699.625,303.6875)"/>
<path d="M0 0 C0.86625 0.5775 1.7325 1.155 2.625 1.75 C11.25264459 9.92355803 15.7468726 21.40632427 16.25 33.125 C16.09367558 44.71254745 11.92363169 55.55081928 4.11328125 64.046875 C-4.10284906 71.64034109 -13.89702944 76.02605521 -25 77 C-25.6909375 77.06445312 -26.381875 77.12890625 -27.09375 77.1953125 C-38.84773253 77.78301163 -50.87604379 74.4335804 -60 67 C-60.886875 66.401875 -61.77375 65.80375 -62.6875 65.1875 C-66.18345825 61.88051247 -68.58727829 58.14459319 -71 54 C-71.41894531 53.30519531 -71.83789062 52.61039062 -72.26953125 51.89453125 C-76.88150375 42.68688297 -76.29487498 30.43800199 -74.3046875 20.54296875 C-70.77106584 9.92725662 -62.97207388 1.13508886 -53.3984375 -4.54296875 C-35.71046195 -13.23403455 -15.96783754 -11.28003202 0 0 Z M-48 15 C-53.40414254 21.01980434 -55.24891875 28.63620233 -54.87890625 36.609375 C-53.71159912 44.3593316 -50.07221268 50.45071714 -44.0625 55.4375 C-36.60755888 59.24104139 -29.44811037 60.17346036 -21.4375 57.875 C-15.13853718 55.54003965 -10.7619433 51.89656791 -7.625 45.9375 C-4.26322438 38.35195502 -4.10477053 31.06879986 -6.96484375 23.2734375 C-9.78182177 17.08671596 -13.4664728 12.4018008 -19.796875 9.68359375 C-30.0379215 6.50596407 -39.73524407 8.06256034 -48 15 Z " fill="#707070" transform="translate(888,302)"/>
<path d="M0 0 C6.92595309 -1.28882608 14.2180378 -2.32957893 21 0 C26.66248177 4.66533781 30.20511534 11.30010624 33.59399414 17.70996094 C35.12107387 20.19719967 36.86906542 22.01829053 39 24 C39.47945068 23.30849854 39.95890137 22.61699707 40.45288086 21.90454102 C42.2281027 19.34521439 44.00423969 16.78652618 45.78100586 14.22827148 C46.55058097 13.11980389 47.31978816 12.01108075 48.08862305 10.90209961 C49.19223373 9.31036712 50.2972674 7.71962154 51.40234375 6.12890625 C52.06741943 5.17056885 52.73249512 4.21223145 53.41772461 3.22485352 C55 1 55 1 56 0 C57.41570123 -0.08651611 58.835595 -0.10704904 60.25390625 -0.09765625 C61.53491211 -0.09282227 61.53491211 -0.09282227 62.84179688 -0.08789062 C64.18854492 -0.07532227 64.18854492 -0.07532227 65.5625 -0.0625 C66.46419922 -0.05798828 67.36589844 -0.05347656 68.29492188 -0.04882812 C70.53001314 -0.03700225 72.76497437 -0.0205222 75 0 C75.85546875 1.984375 75.85546875 1.984375 76 5 C74.45057136 8.00096483 72.37711296 10.58670368 70.3125 13.25 C69.11609554 14.84553595 67.92081173 16.44191273 66.7265625 18.0390625 C66.11071289 18.85407227 65.49486328 19.66908203 64.86035156 20.50878906 C61.88741524 24.48987072 59.03806828 28.55585825 56.1875 32.625 C55.18113723 34.05479143 54.17464101 35.48448895 53.16796875 36.9140625 C52.45253906 37.93242187 51.73710938 38.95078125 51 40 C54.63835556 46.01171995 58.48502422 51.77458289 62.8125 57.3125 C66.46557417 62.00617682 70.09711378 66.71111443 73.625 71.5 C74.28205933 72.36298706 74.28205933 72.36298706 74.95239258 73.2434082 C77.48663063 76.72128356 78.2111856 78.75472007 78 83 C59.59791494 85.53250873 59.59791494 85.53250873 53.97509766 81.57470703 C50.55083619 77.85086013 48.2323532 73.5130649 46.00927734 68.99658203 C44.66490401 66.33710329 43.02179105 63.93681538 41.3125 61.5 C40.54036938 60.33419151 39.7688965 59.16794405 39 58 C35.23908344 59.25363885 34.66329004 60.57551706 32.49609375 63.83984375 C31.50899414 65.3103418 31.50899414 65.3103418 30.50195312 66.81054688 C29.82068359 67.84244141 29.13941406 68.87433594 28.4375 69.9375 C27.08382717 71.96864597 25.72843992 73.99865071 24.37109375 76.02734375 C23.77224365 76.93218506 23.17339355 77.83702637 22.55639648 78.76928711 C21 81 21 81 19 83 C16.84521484 83.22705078 16.84521484 83.22705078 14.2109375 83.1953125 C13.26992188 83.18886719 12.32890625 83.18242187 11.359375 83.17578125 C10.37453125 83.15902344 9.3896875 83.14226562 8.375 83.125 C6.88613281 83.11146484 6.88613281 83.11146484 5.3671875 83.09765625 C2.91121866 83.07404116 0.45572832 83.04110799 -2 83 C-2.22921995 79.31948373 -2.02226803 77.40576229 0.2734375 74.50390625 C0.76392578 73.8694458 1.25441406 73.23498535 1.75976562 72.58129883 C2.29279297 71.91509521 2.82582031 71.2488916 3.375 70.5625 C4.47805104 69.14177946 5.57958637 67.71988096 6.6796875 66.296875 C7.23624023 65.58208984 7.79279297 64.86730469 8.36621094 64.13085938 C11.25261307 60.36628708 13.9717067 56.4849885 16.70068359 52.60571289 C18.4862571 50.07913782 20.26112373 47.71232869 22.34375 45.41796875 C24.20221148 43.16784709 24.20221148 43.16784709 24.08203125 40.671875 C22.50458525 36.77666537 20.168801 33.6230367 17.6875 30.25 C16.89629761 29.14748901 16.89629761 29.14748901 16.08911133 28.02270508 C13.82636078 24.87157826 11.54243014 21.73665026 9.2421875 18.61279297 C8.09588992 17.05558883 6.95423056 15.49495787 5.81762695 13.93066406 C4.74666146 12.45694368 3.66473667 10.99111387 2.57104492 9.53417969 C2.08740479 8.86676758 1.60376465 8.19935547 1.10546875 7.51171875 C0.67387451 6.92865967 0.24228027 6.34560059 -0.20239258 5.74487305 C-1.24061019 3.47363299 -0.81708255 2.30343372 0 0 Z " fill="#707070" transform="translate(911,294)"/>
<path d="M0 0 C0.804375 -0.00128906 1.60875 -0.00257813 2.4375 -0.00390625 C3.283125 -0.00003906 4.12875 0.00382812 5 0.0078125 C6.2684375 0.00201172 6.2684375 0.00201172 7.5625 -0.00390625 C8.366875 -0.00261719 9.17125 -0.00132812 10 0 C10.7425 0.00112793 11.485 0.00225586 12.25 0.00341797 C14 0.1328125 14 0.1328125 15 1.1328125 C15.09506052 3.68871138 15.12556761 6.21749222 15.11352539 8.77368164 C15.11367142 9.57362045 15.11381744 10.37355927 15.1139679 11.19773865 C15.11326855 13.85450915 15.10547518 16.51121043 15.09765625 19.16796875 C15.09579215 21.00499941 15.09436821 22.84203056 15.09336853 24.67906189 C15.08954275 29.52390912 15.07971196 34.36872658 15.06866455 39.21356201 C15.05845172 44.15343828 15.05387119 49.09331935 15.04882812 54.03320312 C15.03808974 63.73308813 15.02049246 73.43294319 15 83.1328125 C8.4 83.1328125 1.8 83.1328125 -5 83.1328125 C-5.02255088 72.45861175 -5.040915 61.7844267 -5.05181217 51.11020756 C-5.05704103 46.15427328 -5.06413874 41.19835608 -5.07543945 36.24243164 C-5.08626822 31.46382414 -5.09227681 26.68523312 -5.09487724 21.9066143 C-5.09673151 20.07927631 -5.10035216 18.25193926 -5.10573006 16.42460823 C-5.11294036 13.87427921 -5.11399095 11.32401913 -5.11352539 8.77368164 C-5.11712067 8.01051636 -5.12071594 7.24735107 -5.12442017 6.46105957 C-5.11158831 0.007765 -5.11158831 0.007765 0 0 Z " fill="#181818" transform="translate(595,293.8671875)"/>
<path d="M0 0 C0.14584064 3.22868746 0.23424106 6.45652365 0.3125 9.6875 C0.35439453 10.59951172 0.39628906 11.51152344 0.43945312 12.45117188 C0.52307031 17.05011728 0.51150767 19.28639314 -2.234375 23.1171875 C-5.06065141 25.04129093 -6.21452749 25.61799939 -9.5625 25.4375 C-10.30628906 25.41558594 -11.05007813 25.39367187 -11.81640625 25.37109375 C-14.18793496 24.96806114 -15.91450318 24.17752541 -18 23 C-17.67 21.68 -17.34 20.36 -17 19 C-16.484375 19.165 -15.96875 19.33 -15.4375 19.5 C-12.26636124 20.15049 -9.22781666 20.0620734 -6 20 C-5.67 19.01 -5.34 18.02 -5 17 C-5.66 17.33 -6.32 17.66 -7 18 C-11.6478538 18.41314256 -14.24440152 17.78987316 -18 15 C-19.62311438 11.75377124 -19.53660044 8.50802538 -19 5 C-15.08411666 -2.22932308 -7.16276236 -0.4361628 0 0 Z M-15 6 C-14.67673447 9.59679066 -14.67673447 9.59679066 -14 13 C-9.38366021 14.14174319 -9.38366021 14.14174319 -5 12.9375 C-3.51448845 10.05932137 -4.20311091 8.0547415 -5 5 C-6.17036305 3.60712194 -6.17036305 3.60712194 -9.4375 3.8125 C-13.05032721 3.60435072 -13.05032721 3.60435072 -15 6 Z " fill="#707070" transform="translate(925,413)"/>
<path d="M0 0 C0.14584064 3.22868746 0.23424106 6.45652365 0.3125 9.6875 C0.35439453 10.59951172 0.39628906 11.51152344 0.43945312 12.45117188 C0.52350672 17.07411966 0.52156876 19.28362845 -2.26953125 23.1171875 C-6.08886015 25.7508306 -8.53872461 25.71056604 -13 25 C-16 24 -16 24 -18 23 C-17.67 21.68 -17.34 20.36 -17 19 C-16.484375 19.165 -15.96875 19.33 -15.4375 19.5 C-12.19723486 20.16466977 -9.2972667 20.24424198 -6 20 C-5.34 19.01 -4.68 18.02 -4 17 C-4.66 17.33 -5.32 17.66 -6 18 C-10.18144011 18.39447548 -12.30946048 18.45035186 -15.875 16.125 C-18.5873239 13.4126761 -18.93914093 12.53758847 -19.375 8.6875 C-19 5 -19 5 -17.375 2.0625 C-11.9428683 -1.25713604 -6.20594005 -0.37789892 0 0 Z M-13 4 C-15.29637779 6.75895635 -15.29637779 6.75895635 -14.75 9.5625 C-14.16191948 12.15000567 -14.16191948 12.15000567 -12 14 C-8.40320934 13.67673447 -8.40320934 13.67673447 -5 13 C-4.32326553 9.59679066 -4.32326553 9.59679066 -4 6 C-5.94458314 3.6278031 -5.94458314 3.6278031 -9.5 3.6875 C-10.655 3.790625 -11.81 3.89375 -13 4 Z " fill="#707070" transform="translate(640,413)"/>
<path d="M0 0 C1.32 0 2.64 0 4 0 C4 3.3 4 6.6 4 10 C7.96 10 11.92 10 16 10 C16 6.7 16 3.4 16 0 C17.32 0 18.64 0 20 0 C20 8.25 20 16.5 20 25 C18.68 25 17.36 25 16 25 C16 21.37 16 17.74 16 14 C12.04 14 8.08 14 4 14 C4 17.3 4 20.6 4 24 C2.68 24.33 1.36 24.66 0 25 C-1.68516954 23.31483046 -1.13008019 21.21232212 -1.1328125 18.90625 C-1.13474609 17.36130859 -1.13474609 17.36130859 -1.13671875 15.78515625 C-1.13285156 14.70105469 -1.12898437 13.61695313 -1.125 12.5 C-1.12886719 11.41589844 -1.13273438 10.33179688 -1.13671875 9.21484375 C-1.13542969 8.18488281 -1.13414062 7.15492188 -1.1328125 6.09375 C-1.13168457 5.14177734 -1.13055664 4.18980469 -1.12939453 3.20898438 C-1 1 -1 1 0 0 Z " fill="#707070" transform="translate(730,407)"/>
<path d="M0 0 C1.32 0 2.64 0 4 0 C5.67937581 3.41056216 7.34124073 6.8293694 9 10.25 C9.47695313 11.21808594 9.95390625 12.18617188 10.4453125 13.18359375 C10.89648438 14.11816406 11.34765625 15.05273438 11.8125 16.015625 C12.44091797 17.30388184 12.44091797 17.30388184 13.08203125 18.61816406 C14 21 14 21 14 25 C12.68 25 11.36 25 10 25 C9.34 23.02 8.68 21.04 8 19 C4.04 19 0.08 19 -4 19 C-4.66 20.98 -5.32 22.96 -6 25 C-7.32 25 -8.64 25 -10 25 C-9.4671171 19.08984421 -7.015992 14.36885509 -4.4375 9.125 C-4.01275391 8.24585938 -3.58800781 7.36671875 -3.15039062 6.4609375 C-2.10703441 4.30388644 -1.05678116 2.15049712 0 0 Z M1 7 C-0.485 10.96 -0.485 10.96 -2 15 C0.64 15 3.28 15 6 15 C5.01 12.36 4.02 9.72 3 7 C2.34 7 1.68 7 1 7 Z " fill="#707070" transform="translate(891,407)"/>
<path d="M0 0 C0.7734375 0.495 0.7734375 0.495 1.5625 1 C1.5625 2.32 1.5625 3.64 1.5625 5 C1.046875 4.835 0.53125 4.67 0 4.5 C-3.17113876 3.84951 -6.20968334 3.9379266 -9.4375 4 C-9.7675 4.99 -10.0975 5.98 -10.4375 7 C-9.58285156 7.34933594 -8.72820312 7.69867188 -7.84765625 8.05859375 C-6.74292969 8.51363281 -5.63820313 8.96867187 -4.5 9.4375 C-3.39785156 9.88996094 -2.29570313 10.34242188 -1.16015625 10.80859375 C1.5625 12 1.5625 12 2.5625 13 C3.03414431 19.36719823 3.03414431 19.36719823 1.31640625 21.671875 C-1.86850616 24.08361269 -5.53864336 24.13924488 -9.4375 24 C-13 22.5625 -13 22.5625 -15.4375 21 C-15.1075 19.68 -14.7775 18.36 -14.4375 17 C-13.7775 17.33 -13.1175 17.66 -12.4375 18 C-8.57688967 19.28687011 -5.49599717 19.13757618 -1.4375 19 C-1.4375 17.68 -1.4375 16.36 -1.4375 15 C-2.19675781 14.81824219 -2.95601563 14.63648438 -3.73828125 14.44921875 C-4.73214844 14.19785156 -5.72601563 13.94648438 -6.75 13.6875 C-7.73613281 13.44386719 -8.72226562 13.20023437 -9.73828125 12.94921875 C-12.4777469 11.9858466 -13.76827254 11.35287011 -15.4375 9 C-15.4375 5.5 -15.4375 5.5 -14.4375 2 C-10.26458299 -1.80471845 -5.16019283 -2.11700218 0 0 Z " fill="#707070" transform="translate(514.4375,408)"/>
<path d="M0 0 C2.875 1.625 2.875 1.625 5 4 C5.875 7.1875 5.875 7.1875 6 10 C5 11 5 11 2.05859375 11.09765625 C0.26615234 11.08025391 0.26615234 11.08025391 -1.5625 11.0625 C-3.35880859 11.04896484 -3.35880859 11.04896484 -5.19140625 11.03515625 C-6.11824219 11.02355469 -7.04507813 11.01195312 -8 11 C-5.7983236 13.54859191 -5.7983236 13.54859191 -2.5625 14.1875 C-1.716875 14.125625 -0.87125 14.06375 0 14 C1.32 14 2.64 14 4 14 C4 14.99 4 15.98 4 17 C0.58251778 19.10306598 -2.02085525 19.40603518 -6 19 C-8.80915461 17.72311154 -10.50106764 16.68900183 -12.3125 14.1875 C-13.24084633 11.23367076 -13.37765935 9.084218 -13 6 C-9.24647283 0.36970925 -6.73139654 -0.57045733 0 0 Z M-7 4 C-7.33 4.99 -7.66 5.98 -8 7 C-5.03 7 -2.06 7 1 7 C0.34 6.01 -0.32 5.02 -1 4 C-4.08365871 3.7497843 -4.08365871 3.7497843 -7 4 Z " fill="#707070" transform="translate(604,413)"/>
<path d="M0 0 C2.4375 1.5625 2.4375 1.5625 4 4 C4.75 7.75 4.75 7.75 5 11 C-1.435 11.495 -1.435 11.495 -8 12 C-8 12.66 -8 13.32 -8 14 C-2.42169984 14.12469099 -2.42169984 14.12469099 3 13 C3 14.32 3 15.64 3 17 C-0.36511705 19.38362458 -3.19635912 19.17785015 -7.09375 18.5234375 C-10.18278408 17.67521913 -11.34661779 16.75563701 -13 14 C-13.93676954 9.22693618 -13.67955655 6.04057096 -11 1.9375 C-6.83994881 -0.74919973 -4.89701312 -0.6995733 0 0 Z M-7 4 C-7.99 5.485 -7.99 5.485 -9 7 C-6.03 7 -3.06 7 0 7 C-0.33 6.01 -0.66 5.02 -1 4 C-3.91634129 3.7497843 -3.91634129 3.7497843 -7 4 Z " fill="#707070" transform="translate(571,413)"/>
<path d="M0 0 C1.65 0 3.3 0 5 0 C6.65 3.63 8.3 7.26 10 11 C11.65 7.37 13.3 3.74 15 0 C16.32 0 17.64 0 19 0 C18.42387073 5.48195734 16.47324671 9.8430902 14.125 14.75 C13.77308594 15.51699219 13.42117188 16.28398437 13.05859375 17.07421875 C12.71183594 17.80769531 12.36507812 18.54117187 12.0078125 19.296875 C11.69473145 19.96041992 11.38165039 20.62396484 11.05908203 21.30761719 C10 23 10 23 7 25 C3.9375 25.3125 3.9375 25.3125 1 25 C0.34 24.01 -0.32 23.02 -1 22 C-0.67 21.34 -0.34 20.68 0 20 C1.98 20 3.96 20 6 20 C7.24305978 16.27082065 6.25501355 14.91643326 4.59960938 11.50195312 C4.08624023 10.48004883 4.08624023 10.48004883 3.5625 9.4375 C0 2.22428571 0 2.22428571 0 0 Z " fill="#707070" transform="translate(969,413)"/>
<path d="M0 0 C1.32 0 2.64 0 4 0 C5.65 3.63 7.3 7.26 9 11 C10.98 7.37 12.96 3.74 15 0 C16.32 0 17.64 0 19 0 C17.30715036 5.77560466 15.11798644 11.06545358 12.4375 16.4375 C12.13255615 17.05254395 11.8276123 17.66758789 11.51342773 18.30126953 C10.20169553 20.8845386 9.06212012 22.93787988 7 25 C1.66666667 25.33333333 1.66666667 25.33333333 -1 24 C-0.67 22.68 -0.34 21.36 0 20 C1.98 20.33 3.96 20.66 6 21 C5.60924218 15.13863263 3.64779649 10.704879 1.05859375 5.453125 C0 3 0 3 0 0 Z " fill="#707070" transform="translate(679,413)"/>
<path d="M0 0 C3 1.9375 3 1.9375 5 5 C5.86421959 9.29815406 5.77392977 12.71011705 3.5 16.5 C0.05733801 18.5655972 -2.99253383 19.20714537 -7 19 C-9.90208571 17.80131242 -11.40814148 16.72637182 -13.375 14.3125 C-14.34722353 10.71527293 -14.10641347 7.55216956 -13 4 C-9.4297448 -0.32758206 -5.33373263 -1.20439124 0 0 Z M-9 5.625 C-10.32083333 8.09791667 -10.32083333 8.09791667 -9.1875 11.25 C-8.795625 12.1575 -8.40375 13.065 -8 14 C-3.94827836 15.13291596 -3.94827836 15.13291596 -0.125 13.9375 C1.47671956 11.17898298 1.33302312 9.1304173 1 6 C-0.88138759 3.71069764 -0.88138759 3.71069764 -3.9375 3.625 C-7.0272058 3.72793176 -7.0272058 3.72793176 -9 5.625 Z " fill="#707070" transform="translate(768,413)"/>
<path d="M0 0 C3 1.9375 3 1.9375 5 5 C5.86421959 9.29815406 5.77392977 12.71011705 3.5 16.5 C0.05733801 18.5655972 -2.99253383 19.20714537 -7 19 C-9.90208571 17.80131242 -11.40814148 16.72637182 -13.375 14.3125 C-14.34722353 10.71527293 -14.10641347 7.55216956 -13 4 C-9.4297448 -0.32758206 -5.33373263 -1.20439124 0 0 Z M-9 5.625 C-10.32083333 8.09791667 -10.32083333 8.09791667 -9.1875 11.25 C-8.795625 12.1575 -8.40375 13.065 -8 14 C-3.94827836 15.13291596 -3.94827836 15.13291596 -0.125 13.9375 C1.47671956 11.17898298 1.33302312 9.1304173 1 6 C-0.88138759 3.71069764 -0.88138759 3.71069764 -3.9375 3.625 C-7.0272058 3.72793176 -7.0272058 3.72793176 -9 5.625 Z " fill="#707070" transform="translate(533,413)"/>
<path d="M0 0 C12.2311828 -0.48924731 12.2311828 -0.48924731 15.40625 1.53125 C17.58383541 4.9043725 17.44021363 7.87988416 17.25 11.75 C17.23195313 12.44738281 17.21390625 13.14476562 17.1953125 13.86328125 C17.14838554 15.57611539 17.07664605 17.28823824 17 19 C15.68 19 14.36 19 13 19 C12.67 14.05 12.34 9.1 12 4 C9.69 4.66 7.38 5.32 5 6 C4.67 10.29 4.34 14.58 4 19 C2.68 19 1.36 19 0 19 C0 12.73 0 6.46 0 0 Z " fill="#707070" transform="translate(646,413)"/>
<path d="M0 0 C0.680625 0.00644531 1.36125 0.01289063 2.0625 0.01953125 C4 0.1875 4 0.1875 7 1.1875 C6.67 2.5075 6.34 3.8275 6 5.1875 C3.03 5.1875 0.06 5.1875 -3 5.1875 C-0.69717067 6.72271956 1.17862235 7.77107909 3.6875 8.8125 C4.780625 9.26625 5.87375 9.72 7 10.1875 C7.3125 13 7.3125 13 7 16.1875 C5.0625 18.125 5.0625 18.125 2 19.1875 C-1.05558328 19.12618395 -3.99532807 18.73082848 -7 18.1875 C-7.33 16.8675 -7.66 15.5475 -8 14.1875 C-7.34 13.8575 -6.68 13.5275 -6 13.1875 C-5.34 13.5175 -4.68 13.8475 -4 14.1875 C-2.00039988 14.227492 0.00047242 14.23096799 2 14.1875 C2.33 13.5275 2.66 12.8675 3 12.1875 C2.37351562 12.06632812 1.74703125 11.94515625 1.1015625 11.8203125 C-0.12433594 11.56894531 -0.12433594 11.56894531 -1.375 11.3125 C-2.18710937 11.15007812 -2.99921875 10.98765625 -3.8359375 10.8203125 C-6 10.1875 -6 10.1875 -8 8.1875 C-7.8125 5.1875 -7.8125 5.1875 -7 2.1875 C-3.97455666 0.17053778 -3.38932618 -0.07061096 0 0 Z " fill="#707070" transform="translate(802,412.8125)"/>
<path d="M0 0 C0.99 0.66 1.98 1.32 3 2 C2.67 3.32 2.34 4.64 2 6 C-0.97 5.67 -3.94 5.34 -7 5 C-9.33391203 7.78114056 -9.33391203 7.78114056 -8.625 10.6875 C-8.315625 11.8321875 -8.315625 11.8321875 -8 13 C-3.98195309 13.84098656 -0.98196457 14.05404945 3 13 C2.66260373 15.530472 2.3938922 16.6818563 0.375 18.3125 C-3.08268372 19.31340845 -5.52929682 18.86767579 -9 18 C-12.27498169 15.32830441 -13.84248982 13.4175916 -14.3125 9.1875 C-13.92835642 5.2692355 -12.70743683 3.78706733 -10 1 C-6.87293041 -0.5635348 -3.42017557 -0.39958487 0 0 Z " fill="#707070" transform="translate(848,413)"/>
<path d="M0 0 C1.65 0 3.3 0 5 0 C5.67354499 1.43429001 6.33859701 2.87257057 7 4.3125 C7.556875 5.51326172 7.556875 5.51326172 8.125 6.73828125 C9 9 9 9 9 12 C9.66 12 10.32 12 11 12 C11.1546875 10.9790625 11.1546875 10.9790625 11.3125 9.9375 C12.14725019 6.37084011 13.49472754 3.33777806 15 0 C16.65 0 18.3 0 20 0 C18.60121198 4.46797338 16.86369228 8.63822079 14.875 12.875 C14.33617187 14.02742188 13.79734375 15.17984375 13.2421875 16.3671875 C12.62730469 17.67042969 12.62730469 17.67042969 12 19 C10.68 19 9.36 19 8 19 C6.66042079 16.21128823 5.32941565 13.41856938 4 10.625 C3.6184375 9.8309375 3.236875 9.036875 2.84375 8.21875 C2.4828125 7.45820313 2.121875 6.69765625 1.75 5.9140625 C1.41484375 5.2123291 1.0796875 4.5105957 0.734375 3.78759766 C0 2 0 2 0 0 Z " fill="#707070" transform="translate(538,413)"/>
<path d="M0 0 C1.32 0 2.64 0 4 0 C4 1.32 4 2.64 4 4 C5.65 4 7.3 4 9 4 C9 5.32 9 6.64 9 8 C7.35 8 5.7 8 4 8 C4 11.63 4 15.26 4 19 C5.65 18.67 7.3 18.34 9 18 C9.33 19.32 9.66 20.64 10 22 C3.375 23.25 3.375 23.25 0 21 C-0.29296875 17.9609375 -0.29296875 17.9609375 -0.1875 14.375 C-0.16042969 13.18648438 -0.13335938 11.99796875 -0.10546875 10.7734375 C-0.07066406 9.85820312 -0.03585937 8.94296875 0 8 C-0.99 8 -1.98 8 -3 8 C-3 6.68 -3 5.36 -3 4 C-2.01 4 -1.02 4 0 4 C0 2.68 0 1.36 0 0 Z " fill="#707070" transform="translate(669,409)"/>
<path d="M0 0 C1.32 0 2.64 0 4 0 C4 1.32 4 2.64 4 4 C5.65 4 7.3 4 9 4 C9 5.32 9 6.64 9 8 C7.35 8 5.7 8 4 8 C4.33 11.3 4.66 14.6 5 18 C6.65 18.33 8.3 18.66 10 19 C10 19.99 10 20.98 10 22 C3.53658537 23.34146341 3.53658537 23.34146341 1.28125 21.90625 C-0.55756764 19.17044815 -0.29261279 17.07099634 -0.1875 13.8125 C-0.16042969 12.72582031 -0.13335938 11.63914062 -0.10546875 10.51953125 C-0.07066406 9.68808594 -0.03585937 8.85664063 0 8 C-0.99 8 -1.98 8 -3 8 C-3 6.68 -3 5.36 -3 4 C-2.01 4 -1.02 4 0 4 C0 2.68 0 1.36 0 0 Z " fill="#707070" transform="translate(813,409)"/>
<path d="M0 0 C1.32 0 2.64 0 4 0 C4 1.32 4 2.64 4 4 C5.65 4 7.3 4 9 4 C9 5.32 9 6.64 9 8 C7.35 8 5.7 8 4 8 C4.33 11.3 4.66 14.6 5 18 C6.65 18 8.3 18 10 18 C10 19.32 10 20.64 10 22 C6.62017497 22.92177046 4.78662333 23.41401228 1.625 21.75 C-0.94565045 17.39966847 -0.30617812 12.93286968 0 8 C-0.99 8 -1.98 8 -3 8 C-3 6.68 -3 5.36 -3 4 C-2.01 4 -1.02 4 0 4 C0 2.68 0 1.36 0 0 Z " fill="#707070" transform="translate(959,409)"/>
<path d="M0 0 C1.32 0 2.64 0 4 0 C4 10.56 4 21.12 4 32 C2.68 32 1.36 32 0 32 C0 21.44 0 10.88 0 0 Z " fill="#707070" transform="translate(710,406)"/>
<path d="M0 0 C1.32 0 2.64 0 4 0 C4 10.23 4 20.46 4 31 C2.68 31.33 1.36 31.66 0 32 C0 21.44 0 10.88 0 0 Z " fill="#707070" transform="translate(865,406)"/>
<path d="M0 0 C1.32 0 2.64 0 4 0 C4 8.58 4 17.16 4 26 C2.68 26 1.36 26 0 26 C0 17.42 0 8.84 0 0 Z " fill="#707070" transform="translate(940,406)"/>
<path d="M0 0 C1.32 0 2.64 0 4 0 C4 8.58 4 17.16 4 26 C2.68 26 1.36 26 0 26 C0 17.42 0 8.84 0 0 Z " fill="#707070" transform="translate(777,406)"/>
<path d="M0 0 C3.3 0 6.6 0 10 0 C10 1.32 10 2.64 10 4 C8.35 4.66 6.7 5.32 5 6 C4.67 10.29 4.34 14.58 4 19 C2.68 19 1.36 19 0 19 C0 12.73 0 6.46 0 0 Z " fill="#707070" transform="translate(580,413)"/>
<path d="M0 0 C1.65 0 3.3 0 5 0 C5 5.94 5 11.88 5 18 C3.68 18.33 2.36 18.66 1 19 C0 18 0 18 -0.11352539 16.23413086 C-0.10828857 15.48526611 -0.10305176 14.73640137 -0.09765625 13.96484375 C-0.09443359 13.15595703 -0.09121094 12.34707031 -0.08789062 11.51367188 C-0.07951172 10.66353516 -0.07113281 9.81339844 -0.0625 8.9375 C-0.05798828 8.08349609 -0.05347656 7.22949219 -0.04882812 6.34960938 C-0.03700373 4.23304337 -0.01906769 2.11651315 0 0 Z " fill="#707070" transform="translate(826,413)"/>
<path d="M0 0 C1.65 0 3.3 0 5 0 C5 5.94 5 11.88 5 18 C3.68 18.33 2.36 18.66 1 19 C0 18 0 18 -0.11352539 16.23413086 C-0.10828857 15.48526611 -0.10305176 14.73640137 -0.09765625 13.96484375 C-0.09443359 13.15595703 -0.09121094 12.34707031 -0.08789062 11.51367188 C-0.07951172 10.66353516 -0.07113281 9.81339844 -0.0625 8.9375 C-0.05798828 8.08349609 -0.05347656 7.22949219 -0.04882812 6.34960938 C-0.03700373 4.23304337 -0.01906769 2.11651315 0 0 Z " fill="#707070" transform="translate(786,413)"/>
<path d="M0 0 C1.32 0 2.64 0 4 0 C4 6.27 4 12.54 4 19 C2.68 19 1.36 19 0 19 C0 12.73 0 6.46 0 0 Z " fill="#707070" transform="translate(949,413)"/>
<path d="M0 0 C1.32 0 2.64 0 4 0 C4 6.27 4 12.54 4 19 C2.68 19 1.36 19 0 19 C0 12.73 0 6.46 0 0 Z " fill="#707070" transform="translate(613,413)"/>
<path d="M0 0 C1.32 0 2.64 0 4 0 C4 6.27 4 12.54 4 19 C2.68 18.67 1.36 18.34 0 18 C0 12.06 0 6.12 0 0 Z " fill="#707070" transform="translate(930,413)"/>
<path d="M0 0 C2.475 0.495 2.475 0.495 5 1 C4.67 2.32 4.34 3.64 4 5 C2.68 4.67 1.36 4.34 0 4 C0 2.68 0 1.36 0 0 Z " fill="#707070" transform="translate(613,406)"/>
<path d="M0 0 C1.98 0.495 1.98 0.495 4 1 C3.67 2.32 3.34 3.64 3 5 C1.68 4.67 0.36 4.34 -1 4 C-0.67 2.68 -0.34 1.36 0 0 Z " fill="#707070" transform="translate(950,406)"/>
<path d="M0 0 C1.98 0.495 1.98 0.495 4 1 C3.67 2.32 3.34 3.64 3 5 C1.68 4.67 0.36 4.34 -1 4 C-0.67 2.68 -0.34 1.36 0 0 Z " fill="#707070" transform="translate(931,406)"/>
<path d="M0 0 C1.98 0.495 1.98 0.495 4 1 C3.67 2.32 3.34 3.64 3 5 C1.68 4.67 0.36 4.34 -1 4 C-0.67 2.68 -0.34 1.36 0 0 Z " fill="#707070" transform="translate(827,406)"/>
<path d="M0 0 C1.98 0.495 1.98 0.495 4 1 C3.67 2.32 3.34 3.64 3 5 C1.68 4.67 0.36 4.34 -1 4 C-0.67 2.68 -0.34 1.36 0 0 Z " fill="#707070" transform="translate(787,406)"/>
<path d="M0 0 C2.31 0 4.62 0 7 0 C7 0.33 7 0.66 7 1 C4.69 1 2.38 1 0 1 C0 0.67 0 0.34 0 0 Z " fill="#00AEEF" transform="translate(1177,668)"/>
<path d="M0 0 C2.31 0 4.62 0 7 0 C7 0.33 7 0.66 7 1 C4.69 1 2.38 1 0 1 C0 0.67 0 0.34 0 0 Z " fill="#00AEEF" transform="translate(1167,668)"/>
<path d="M0 0 C2.31 0 4.62 0 7 0 C7 0.33 7 0.66 7 1 C4.69 1 2.38 1 0 1 C0 0.67 0 0.34 0 0 Z " fill="#00AEEF" transform="translate(1136,668)"/>
<path d="M0 0 C2.31 0 4.62 0 7 0 C7 0.33 7 0.66 7 1 C4.69 1 2.38 1 0 1 C0 0.67 0 0.34 0 0 Z " fill="#00AEEF" transform="translate(1126,668)"/>
<path d="M0 0 C2.31 0 4.62 0 7 0 C7 0.33 7 0.66 7 1 C4.69 1 2.38 1 0 1 C0 0.67 0 0.34 0 0 Z " fill="#00AEEF" transform="translate(1116,668)"/>
<path d="M0 0 C2.31 0 4.62 0 7 0 C7 0.33 7 0.66 7 1 C4.69 1 2.38 1 0 1 C0 0.67 0 0.34 0 0 Z " fill="#00AEEF" transform="translate(1106,668)"/>
<path d="M0 0 C2.31 0 4.62 0 7 0 C7 0.33 7 0.66 7 1 C4.69 1 2.38 1 0 1 C0 0.67 0 0.34 0 0 Z " fill="#00AEEF" transform="translate(1085,668)"/>
<path d="M0 0 C2.31 0 4.62 0 7 0 C7 0.33 7 0.66 7 1 C4.69 1 2.38 1 0 1 C0 0.67 0 0.34 0 0 Z " fill="#00AEEF" transform="translate(1075,668)"/>
<path d="M0 0 C2.31 0 4.62 0 7 0 C7 0.33 7 0.66 7 1 C4.69 1 2.38 1 0 1 C0 0.67 0 0.34 0 0 Z " fill="#00AEEF" transform="translate(1054,668)"/>
<path d="M0 0 C2.31 0 4.62 0 7 0 C7 0.33 7 0.66 7 1 C4.69 1 2.38 1 0 1 C0 0.67 0 0.34 0 0 Z " fill="#00AEEF" transform="translate(1044,668)"/>
<path d="M0 0 C2.31 0 4.62 0 7 0 C7 0.33 7 0.66 7 1 C4.69 1 2.38 1 0 1 C0 0.67 0 0.34 0 0 Z " fill="#00AEEF" transform="translate(1034,668)"/>
<path d="M0 0 C2.31 0 4.62 0 7 0 C7 0.33 7 0.66 7 1 C4.69 1 2.38 1 0 1 C0 0.67 0 0.34 0 0 Z " fill="#00AEEF" transform="translate(1013,668)"/>
<path d="M0 0 C2.31 0 4.62 0 7 0 C7 0.33 7 0.66 7 1 C4.69 1 2.38 1 0 1 C0 0.67 0 0.34 0 0 Z " fill="#00AEEF" transform="translate(1003,668)"/>
<path d="M0 0 C2.31 0 4.62 0 7 0 C7 0.33 7 0.66 7 1 C4.69 1 2.38 1 0 1 C0 0.67 0 0.34 0 0 Z " fill="#00AEEF" transform="translate(993,668)"/>
<path d="M0 0 C2.31 0 4.62 0 7 0 C7 0.33 7 0.66 7 1 C4.69 1 2.38 1 0 1 C0 0.67 0 0.34 0 0 Z " fill="#00AEEF" transform="translate(972,668)"/>
<path d="M0 0 C2.31 0 4.62 0 7 0 C7 0.33 7 0.66 7 1 C4.69 1 2.38 1 0 1 C0 0.67 0 0.34 0 0 Z " fill="#00AEEF" transform="translate(962,668)"/>
<path d="M0 0 C2.31 0 4.62 0 7 0 C7 0.33 7 0.66 7 1 C4.69 1 2.38 1 0 1 C0 0.67 0 0.34 0 0 Z " fill="#00AEEF" transform="translate(952,668)"/>
<path d="M0 0 C2.31 0 4.62 0 7 0 C7 0.33 7 0.66 7 1 C4.69 1 2.38 1 0 1 C0 0.67 0 0.34 0 0 Z " fill="#00AEEF" transform="translate(942,668)"/>
<path d="M0 0 C2.31 0 4.62 0 7 0 C7 0.33 7 0.66 7 1 C4.69 1 2.38 1 0 1 C0 0.67 0 0.34 0 0 Z " fill="#00AEEF" transform="translate(921,668)"/>
<path d="M0 0 C2.31 0 4.62 0 7 0 C7 0.33 7 0.66 7 1 C4.69 1 2.38 1 0 1 C0 0.67 0 0.34 0 0 Z " fill="#00AEEF" transform="translate(911,668)"/>
<path d="M0 0 C2.31 0 4.62 0 7 0 C7 0.33 7 0.66 7 1 C4.69 1 2.38 1 0 1 C0 0.67 0 0.34 0 0 Z " fill="#00AEEF" transform="translate(901,668)"/>
<path d="M0 0 C2.31 0 4.62 0 7 0 C7 0.33 7 0.66 7 1 C4.69 1 2.38 1 0 1 C0 0.67 0 0.34 0 0 Z " fill="#00AEEF" transform="translate(880,668)"/>
<path d="M0 0 C2.31 0 4.62 0 7 0 C7 0.33 7 0.66 7 1 C4.69 1 2.38 1 0 1 C0 0.67 0 0.34 0 0 Z " fill="#00AEEF" transform="translate(870,668)"/>
<path d="M0 0 C2.31 0 4.62 0 7 0 C7 0.33 7 0.66 7 1 C4.69 1 2.38 1 0 1 C0 0.67 0 0.34 0 0 Z " fill="#00AEEF" transform="translate(860,668)"/>
<path d="M0 0 C2.31 0 4.62 0 7 0 C7 0.33 7 0.66 7 1 C4.69 1 2.38 1 0 1 C0 0.67 0 0.34 0 0 Z " fill="#00AEEF" transform="translate(839,668)"/>
<path d="M0 0 C2.31 0 4.62 0 7 0 C7 0.33 7 0.66 7 1 C4.69 1 2.38 1 0 1 C0 0.67 0 0.34 0 0 Z " fill="#00AEEF" transform="translate(829,668)"/>
<path d="M0 0 C2.31 0 4.62 0 7 0 C7 0.33 7 0.66 7 1 C4.69 1 2.38 1 0 1 C0 0.67 0 0.34 0 0 Z " fill="#00AEEF" transform="translate(819,668)"/>
<path d="M0 0 C2.31 0 4.62 0 7 0 C7 0.33 7 0.66 7 1 C4.69 1 2.38 1 0 1 C0 0.67 0 0.34 0 0 Z " fill="#00AEEF" transform="translate(798,668)"/>
<path d="M0 0 C2.31 0 4.62 0 7 0 C7 0.33 7 0.66 7 1 C4.69 1 2.38 1 0 1 C0 0.67 0 0.34 0 0 Z " fill="#00AEEF" transform="translate(788,668)"/>
<path d="M0 0 C2.31 0 4.62 0 7 0 C7 0.33 7 0.66 7 1 C4.69 1 2.38 1 0 1 C0 0.67 0 0.34 0 0 Z " fill="#00AEEF" transform="translate(768,668)"/>
<path d="M0 0 C2.31 0 4.62 0 7 0 C7 0.33 7 0.66 7 1 C4.69 1 2.38 1 0 1 C0 0.67 0 0.34 0 0 Z " fill="#00AEEF" transform="translate(747,668)"/>
<path d="M0 0 C2.31 0 4.62 0 7 0 C7 0.33 7 0.66 7 1 C4.69 1 2.38 1 0 1 C0 0.67 0 0.34 0 0 Z " fill="#00AEEF" transform="translate(737,668)"/>
<path d="M0 0 C2.31 0 4.62 0 7 0 C7 0.33 7 0.66 7 1 C4.69 1 2.38 1 0 1 C0 0.67 0 0.34 0 0 Z " fill="#00AEEF" transform="translate(727,668)"/>
<path d="M0 0 C2.31 0 4.62 0 7 0 C7 0.33 7 0.66 7 1 C4.69 1 2.38 1 0 1 C0 0.67 0 0.34 0 0 Z " fill="#00AEEF" transform="translate(706,668)"/>
<path d="M0 0 C2.31 0 4.62 0 7 0 C7 0.33 7 0.66 7 1 C4.69 1 2.38 1 0 1 C0 0.67 0 0.34 0 0 Z " fill="#00AEEF" transform="translate(696,668)"/>
<path d="M0 0 C2.31 0 4.62 0 7 0 C7 0.33 7 0.66 7 1 C4.69 1 2.38 1 0 1 C0 0.67 0 0.34 0 0 Z " fill="#00AEEF" transform="translate(675,668)"/>
<path d="M0 0 C2.31 0 4.62 0 7 0 C7 0.33 7 0.66 7 1 C4.69 1 2.38 1 0 1 C0 0.67 0 0.34 0 0 Z " fill="#00AEEF" transform="translate(665,668)"/>
<path d="M0 0 C2.31 0 4.62 0 7 0 C7 0.33 7 0.66 7 1 C4.69 1 2.38 1 0 1 C0 0.67 0 0.34 0 0 Z " fill="#00AEEF" transform="translate(655,668)"/>
<path d="M0 0 C2.31 0 4.62 0 7 0 C7 0.33 7 0.66 7 1 C4.69 1 2.38 1 0 1 C0 0.67 0 0.34 0 0 Z " fill="#00AEEF" transform="translate(634,668)"/>
<path d="M0 0 C2.31 0 4.62 0 7 0 C7 0.33 7 0.66 7 1 C4.69 1 2.38 1 0 1 C0 0.67 0 0.34 0 0 Z " fill="#00AEEF" transform="translate(624,668)"/>
<path d="M0 0 C2.31 0 4.62 0 7 0 C7 0.33 7 0.66 7 1 C4.69 1 2.38 1 0 1 C0 0.67 0 0.34 0 0 Z " fill="#00AEEF" transform="translate(614,668)"/>
<path d="M0 0 C2.31 0 4.62 0 7 0 C7 0.33 7 0.66 7 1 C4.69 1 2.38 1 0 1 C0 0.67 0 0.34 0 0 Z " fill="#00AEEF" transform="translate(583,668)"/>
<path d="M0 0 C2.31 0 4.62 0 7 0 C7 0.33 7 0.66 7 1 C4.69 1 2.38 1 0 1 C0 0.67 0 0.34 0 0 Z " fill="#00AEEF" transform="translate(573,668)"/>
<path d="M0 0 C2.31 0 4.62 0 7 0 C7 0.33 7 0.66 7 1 C4.69 1 2.38 1 0 1 C0 0.67 0 0.34 0 0 Z " fill="#00AEEF" transform="translate(563,668)"/>
<path d="M0 0 C2.31 0 4.62 0 7 0 C7 0.33 7 0.66 7 1 C4.69 1 2.38 1 0 1 C0 0.67 0 0.34 0 0 Z " fill="#00AEEF" transform="translate(542,668)"/>
<path d="M0 0 C2.31 0 4.62 0 7 0 C7 0.33 7 0.66 7 1 C4.69 1 2.38 1 0 1 C0 0.67 0 0.34 0 0 Z " fill="#00AEEF" transform="translate(532,668)"/>
<path d="M0 0 C2.31 0 4.62 0 7 0 C7 0.33 7 0.66 7 1 C4.69 1 2.38 1 0 1 C0 0.67 0 0.34 0 0 Z " fill="#00AEEF" transform="translate(522,668)"/>
<path d="M0 0 C2.31 0 4.62 0 7 0 C7 0.33 7 0.66 7 1 C4.69 1 2.38 1 0 1 C0 0.67 0 0.34 0 0 Z " fill="#00AEEF" transform="translate(501,668)"/>
<path d="M0 0 C2.31 0 4.62 0 7 0 C7 0.33 7 0.66 7 1 C4.69 1 2.38 1 0 1 C0 0.67 0 0.34 0 0 Z " fill="#00AEEF" transform="translate(491,668)"/>
<path d="M0 0 C2.31 0 4.62 0 7 0 C7 0.33 7 0.66 7 1 C4.69 1 2.38 1 0 1 C0 0.67 0 0.34 0 0 Z " fill="#00AEEF" transform="translate(481,668)"/>
<path d="M0 0 C2.31 0 4.62 0 7 0 C7 0.33 7 0.66 7 1 C4.69 1 2.38 1 0 1 C0 0.67 0 0.34 0 0 Z " fill="#00AEEF" transform="translate(460,668)"/>
<path d="M0 0 C2.31 0 4.62 0 7 0 C7 0.33 7 0.66 7 1 C4.69 1 2.38 1 0 1 C0 0.67 0 0.34 0 0 Z " fill="#00AEEF" transform="translate(450,668)"/>
<path d="M0 0 C2.31 0 4.62 0 7 0 C7 0.33 7 0.66 7 1 C4.69 1 2.38 1 0 1 C0 0.67 0 0.34 0 0 Z " fill="#00AEEF" transform="translate(440,668)"/>
<path d="M0 0 C2.31 0 4.62 0 7 0 C7 0.33 7 0.66 7 1 C4.69 1 2.38 1 0 1 C0 0.67 0 0.34 0 0 Z " fill="#00AEEF" transform="translate(409,668)"/>
<path d="M0 0 C2.31 0 4.62 0 7 0 C7 0.33 7 0.66 7 1 C4.69 1 2.38 1 0 1 C0 0.67 0 0.34 0 0 Z " fill="#00AEEF" transform="translate(399,668)"/>
<path d="M0 0 C2.31 0 4.62 0 7 0 C7 0.33 7 0.66 7 1 C4.69 1 2.38 1 0 1 C0 0.67 0 0.34 0 0 Z " fill="#00AEEF" transform="translate(389,668)"/>
<path d="M0 0 C2.31 0 4.62 0 7 0 C7 0.33 7 0.66 7 1 C4.69 1 2.38 1 0 1 C0 0.67 0 0.34 0 0 Z " fill="#00AEEF" transform="translate(368,668)"/>
<path d="M0 0 C2.31 0 4.62 0 7 0 C7 0.33 7 0.66 7 1 C4.69 1 2.38 1 0 1 C0 0.67 0 0.34 0 0 Z " fill="#00AEEF" transform="translate(358,668)"/>
<path d="M0 0 C2.31 0 4.62 0 7 0 C7 0.33 7 0.66 7 1 C4.69 1 2.38 1 0 1 C0 0.67 0 0.34 0 0 Z " fill="#00AEEF" transform="translate(327,668)"/>
<path d="M0 0 C2.31 0 4.62 0 7 0 C7 0.33 7 0.66 7 1 C4.69 1 2.38 1 0 1 C0 0.67 0 0.34 0 0 Z " fill="#00AEEF" transform="translate(317,668)"/>
<path d="M0 0 C2.31 0 4.62 0 7 0 C7 0.33 7 0.66 7 1 C4.69 1 2.38 1 0 1 C0 0.67 0 0.34 0 0 Z " fill="#00AEEF" transform="translate(296,668)"/>
<path d="M0 0 C2.31 0 4.62 0 7 0 C7 0.33 7 0.66 7 1 C4.69 1 2.38 1 0 1 C0 0.67 0 0.34 0 0 Z " fill="#00AEEF" transform="translate(286,668)"/>
<path d="M0 0 C2.31 0 4.62 0 7 0 C7 0.33 7 0.66 7 1 C4.69 1 2.38 1 0 1 C0 0.67 0 0.34 0 0 Z " fill="#00AEEF" transform="translate(276,668)"/>
<path d="M0 0 C2.31 0 4.62 0 7 0 C7 0.33 7 0.66 7 1 C4.69 1 2.38 1 0 1 C0 0.67 0 0.34 0 0 Z " fill="#00AEEF" transform="translate(255,668)"/>
<path d="M0 0 C2.31 0 4.62 0 7 0 C7 0.33 7 0.66 7 1 C4.69 1 2.38 1 0 1 C0 0.67 0 0.34 0 0 Z " fill="#00AEEF" transform="translate(245,668)"/>
<path d="M0 0 C2.31 0 4.62 0 7 0 C7 0.33 7 0.66 7 1 C4.69 1 2.38 1 0 1 C0 0.67 0 0.34 0 0 Z " fill="#00AEEF" transform="translate(235,668)"/>
<path d="M0 0 C2.31 0 4.62 0 7 0 C7 0.33 7 0.66 7 1 C4.69 1 2.38 1 0 1 C0 0.67 0 0.34 0 0 Z " fill="#00AEEF" transform="translate(225,668)"/>
<path d="M0 0 C2.31 0 4.62 0 7 0 C7 0.33 7 0.66 7 1 C4.69 1 2.38 1 0 1 C0 0.67 0 0.34 0 0 Z " fill="#00AEEF" transform="translate(204,668)"/>
<path d="M0 0 C2.31 0 4.62 0 7 0 C7 0.33 7 0.66 7 1 C4.69 1 2.38 1 0 1 C0 0.67 0 0.34 0 0 Z " fill="#00AEEF" transform="translate(194,668)"/>
<path d="M0 0 C2.31 0 4.62 0 7 0 C7 0.33 7 0.66 7 1 C4.69 1 2.38 1 0 1 C0 0.67 0 0.34 0 0 Z " fill="#00AEEF" transform="translate(184,668)"/>
<path d="M0 0 C2.31 0 4.62 0 7 0 C7 0.33 7 0.66 7 1 C4.69 1 2.38 1 0 1 C0 0.67 0 0.34 0 0 Z " fill="#00AEEF" transform="translate(163,668)"/>
<path d="M0 0 C2.31 0 4.62 0 7 0 C7 0.33 7 0.66 7 1 C4.69 1 2.38 1 0 1 C0 0.67 0 0.34 0 0 Z " fill="#00AEEF" transform="translate(153,668)"/>
<path d="M0 0 C2.31 0 4.62 0 7 0 C7 0.33 7 0.66 7 1 C4.69 1 2.38 1 0 1 C0 0.67 0 0.34 0 0 Z " fill="#00AEEF" transform="translate(143,668)"/>
<path d="M0 0 C2.31 0 4.62 0 7 0 C7 0.33 7 0.66 7 1 C4.69 1 2.38 1 0 1 C0 0.67 0 0.34 0 0 Z " fill="#00AEEF" transform="translate(122,668)"/>
<path d="M0 0 C2.31 0 4.62 0 7 0 C7 0.33 7 0.66 7 1 C4.69 1 2.38 1 0 1 C0 0.67 0 0.34 0 0 Z " fill="#00AEEF" transform="translate(112,668)"/>
<path d="M0 0 C2.31 0 4.62 0 7 0 C7 0.33 7 0.66 7 1 C4.69 1 2.38 1 0 1 C0 0.67 0 0.34 0 0 Z " fill="#00AEEF" transform="translate(102,668)"/>
<path d="M0 0 C2.31 0 4.62 0 7 0 C7 0.33 7 0.66 7 1 C4.69 1 2.38 1 0 1 C0 0.67 0 0.34 0 0 Z " fill="#00AEEF" transform="translate(81,668)"/>
<path d="M0 0 C2.31 0 4.62 0 7 0 C7 0.33 7 0.66 7 1 C4.69 1 2.38 1 0 1 C0 0.67 0 0.34 0 0 Z " fill="#00AEEF" transform="translate(71,668)"/>
<path d="M0 0 C2.31 0 4.62 0 7 0 C7 0.33 7 0.66 7 1 C4.69 1 2.38 1 0 1 C0 0.67 0 0.34 0 0 Z " fill="#00AEEF" transform="translate(61,668)"/>
<path d="M0 0 C2.31 0 4.62 0 7 0 C7 0.33 7 0.66 7 1 C4.69 1 2.38 1 0 1 C0 0.67 0 0.34 0 0 Z " fill="#00AEEF" transform="translate(51,668)"/>
<path d="M0 0 C2.31 0 4.62 0 7 0 C7 0.33 7 0.66 7 1 C4.69 1 2.38 1 0 1 C0 0.67 0 0.34 0 0 Z " fill="#00AEEF" transform="translate(30,668)"/>
<path d="M0 0 C2.31 0 4.62 0 7 0 C7 0.33 7 0.66 7 1 C4.69 1 2.38 1 0 1 C0 0.67 0 0.34 0 0 Z " fill="#00AEEF" transform="translate(20,668)"/>
<path d="M0 0 C2.31 0 4.62 0 7 0 C7 0.33 7 0.66 7 1 C4.69 1 2.38 1 0 1 C0 0.67 0 0.34 0 0 Z " fill="#00AEEF" transform="translate(10,668)"/>
<path d="M0 0 C1.98 0 3.96 0 6 0 C6 0.33 6 0.66 6 1 C4.02 1 2.04 1 0 1 C0 0.67 0 0.34 0 0 Z " fill="#00AEEF" transform="translate(1188,668)"/>
<path d="M0 0 C1.98 0 3.96 0 6 0 C6 0.33 6 0.66 6 1 C4.02 1 2.04 1 0 1 C0 0.67 0 0.34 0 0 Z " fill="#00AEEF" transform="translate(1157,668)"/>
<path d="M0 0 C1.98 0 3.96 0 6 0 C6 0.33 6 0.66 6 1 C4.02 1 2.04 1 0 1 C0 0.67 0 0.34 0 0 Z " fill="#00AEEF" transform="translate(1147,668)"/>
<path d="M0 0 C1.98 0 3.96 0 6 0 C6 0.33 6 0.66 6 1 C4.02 1 2.04 1 0 1 C0 0.67 0 0.34 0 0 Z " fill="#00AEEF" transform="translate(1096,668)"/>
<path d="M0 0 C1.98 0 3.96 0 6 0 C6 0.33 6 0.66 6 1 C4.02 1 2.04 1 0 1 C0 0.67 0 0.34 0 0 Z " fill="#00AEEF" transform="translate(1065,668)"/>
<path d="M0 0 C1.98 0 3.96 0 6 0 C6 0.33 6 0.66 6 1 C4.02 1 2.04 1 0 1 C0 0.67 0 0.34 0 0 Z " fill="#00AEEF" transform="translate(1024,668)"/>
<path d="M0 0 C1.98 0 3.96 0 6 0 C6 0.33 6 0.66 6 1 C4.02 1 2.04 1 0 1 C0 0.67 0 0.34 0 0 Z " fill="#00AEEF" transform="translate(983,668)"/>
<path d="M0 0 C1.98 0 3.96 0 6 0 C6 0.33 6 0.66 6 1 C4.02 1 2.04 1 0 1 C0 0.67 0 0.34 0 0 Z " fill="#00AEEF" transform="translate(932,668)"/>
<path d="M0 0 C1.98 0 3.96 0 6 0 C6 0.33 6 0.66 6 1 C4.02 1 2.04 1 0 1 C0 0.67 0 0.34 0 0 Z " fill="#00AEEF" transform="translate(891,668)"/>
<path d="M0 0 C1.98 0 3.96 0 6 0 C6 0.33 6 0.66 6 1 C4.02 1 2.04 1 0 1 C0 0.67 0 0.34 0 0 Z " fill="#00AEEF" transform="translate(850,668)"/>
<path d="M0 0 C1.98 0 3.96 0 6 0 C6 0.33 6 0.66 6 1 C4.02 1 2.04 1 0 1 C0 0.67 0 0.34 0 0 Z " fill="#00AEEF" transform="translate(809,668)"/>
<path d="M0 0 C1.98 0 3.96 0 6 0 C6 0.33 6 0.66 6 1 C4.02 1 2.04 1 0 1 C0 0.67 0 0.34 0 0 Z " fill="#00AEEF" transform="translate(778,668)"/>
<path d="M0 0 C1.98 0 3.96 0 6 0 C6 0.33 6 0.66 6 1 C4.02 1 2.04 1 0 1 C0 0.67 0 0.34 0 0 Z " fill="#00AEEF" transform="translate(758,668)"/>
<path d="M0 0 C1.98 0 3.96 0 6 0 C6 0.33 6 0.66 6 1 C4.02 1 2.04 1 0 1 C0 0.67 0 0.34 0 0 Z " fill="#00AEEF" transform="translate(717,668)"/>
<path d="M0 0 C1.98 0 3.96 0 6 0 C6 0.33 6 0.66 6 1 C4.02 1 2.04 1 0 1 C0 0.67 0 0.34 0 0 Z " fill="#00AEEF" transform="translate(686,668)"/>
<path d="M0 0 C1.98 0 3.96 0 6 0 C6 0.33 6 0.66 6 1 C4.02 1 2.04 1 0 1 C0 0.67 0 0.34 0 0 Z " fill="#00AEEF" transform="translate(645,668)"/>
<path d="M0 0 C1.98 0 3.96 0 6 0 C6 0.33 6 0.66 6 1 C4.02 1 2.04 1 0 1 C0 0.67 0 0.34 0 0 Z " fill="#00AEEF" transform="translate(604,668)"/>
<path d="M0 0 C1.98 0 3.96 0 6 0 C6 0.33 6 0.66 6 1 C4.02 1 2.04 1 0 1 C0 0.67 0 0.34 0 0 Z " fill="#00AEEF" transform="translate(594,668)"/>
<path d="M0 0 C1.98 0 3.96 0 6 0 C6 0.33 6 0.66 6 1 C4.02 1 2.04 1 0 1 C0 0.67 0 0.34 0 0 Z " fill="#00AEEF" transform="translate(553,668)"/>
<path d="M0 0 C1.98 0 3.96 0 6 0 C6 0.33 6 0.66 6 1 C4.02 1 2.04 1 0 1 C0 0.67 0 0.34 0 0 Z " fill="#00AEEF" transform="translate(512,668)"/>
<path d="M0 0 C1.98 0 3.96 0 6 0 C6 0.33 6 0.66 6 1 C4.02 1 2.04 1 0 1 C0 0.67 0 0.34 0 0 Z " fill="#00AEEF" transform="translate(471,668)"/>
<path d="M0 0 C1.98 0 3.96 0 6 0 C6 0.33 6 0.66 6 1 C4.02 1 2.04 1 0 1 C0 0.67 0 0.34 0 0 Z " fill="#00AEEF" transform="translate(430,668)"/>
<path d="M0 0 C1.98 0 3.96 0 6 0 C6 0.33 6 0.66 6 1 C4.02 1 2.04 1 0 1 C0 0.67 0 0.34 0 0 Z " fill="#00AEEF" transform="translate(420,668)"/>
<path d="M0 0 C1.98 0 3.96 0 6 0 C6 0.33 6 0.66 6 1 C4.02 1 2.04 1 0 1 C0 0.67 0 0.34 0 0 Z " fill="#00AEEF" transform="translate(379,668)"/>
<path d="M0 0 C1.98 0 3.96 0 6 0 C6 0.33 6 0.66 6 1 C4.02 1 2.04 1 0 1 C0 0.67 0 0.34 0 0 Z " fill="#00AEEF" transform="translate(348,668)"/>
<path d="M0 0 C1.98 0 3.96 0 6 0 C6 0.33 6 0.66 6 1 C4.02 1 2.04 1 0 1 C0 0.67 0 0.34 0 0 Z " fill="#00AEEF" transform="translate(338,668)"/>
<path d="M0 0 C1.98 0 3.96 0 6 0 C6 0.33 6 0.66 6 1 C4.02 1 2.04 1 0 1 C0 0.67 0 0.34 0 0 Z " fill="#00AEEF" transform="translate(307,668)"/>
<path d="M0 0 C1.98 0 3.96 0 6 0 C6 0.33 6 0.66 6 1 C4.02 1 2.04 1 0 1 C0 0.67 0 0.34 0 0 Z " fill="#00AEEF" transform="translate(266,668)"/>
<path d="M0 0 C1.98 0 3.96 0 6 0 C6 0.33 6 0.66 6 1 C4.02 1 2.04 1 0 1 C0 0.67 0 0.34 0 0 Z " fill="#00AEEF" transform="translate(215,668)"/>
<path d="M0 0 C1.98 0 3.96 0 6 0 C6 0.33 6 0.66 6 1 C4.02 1 2.04 1 0 1 C0 0.67 0 0.34 0 0 Z " fill="#00AEEF" transform="translate(174,668)"/>
<path d="M0 0 C1.98 0 3.96 0 6 0 C6 0.33 6 0.66 6 1 C4.02 1 2.04 1 0 1 C0 0.67 0 0.34 0 0 Z " fill="#00AEEF" transform="translate(133,668)"/>
<path d="M0 0 C1.98 0 3.96 0 6 0 C6 0.33 6 0.66 6 1 C4.02 1 2.04 1 0 1 C0 0.67 0 0.34 0 0 Z " fill="#00AEEF" transform="translate(92,668)"/>
<path d="M0 0 C1.98 0 3.96 0 6 0 C6 0.33 6 0.66 6 1 C4.02 1 2.04 1 0 1 C0 0.67 0 0.34 0 0 Z " fill="#00AEEF" transform="translate(41,668)"/>
<path d="M0 0 C1.98 0 3.96 0 6 0 C6 0.33 6 0.66 6 1 C4.02 1 2.04 1 0 1 C0 0.67 0 0.34 0 0 Z " fill="#00AEEF" transform="translate(0,668)"/>
<path d="M0 0 C2 1 2 1 2 1 Z " fill="#00AEEF" transform="translate(1198,668)"/>
</svg>
